<svg width="116" height="23" viewBox="0 0 116 23" fill="none" xmlns="http://www.w3.org/2000/svg">
<path d="M26.424 0.535999V23H20.952V9.528L15.928 23H11.512L6.456 9.496V23H0.984V0.535999H7.448L13.752 16.088L19.992 0.535999H26.424ZM56.5815 0.535999V4.92H50.6295V23H45.1575V4.92H39.2055V0.535999H56.5815ZM70.7838 23L66.1118 14.52H64.7998V23H59.3278V0.535999H68.5118C70.2824 0.535999 71.7864 0.845332 73.0238 1.464C74.2824 2.08267 75.2211 2.936 75.8398 4.024C76.4584 5.09067 76.7678 6.28533 76.7678 7.608C76.7678 9.10133 76.3411 10.4347 75.4878 11.608C74.6558 12.7813 73.4184 13.6133 71.7758 14.104L76.9598 23H70.7838ZM64.7998 10.648H68.1918C69.1944 10.648 69.9411 10.4027 70.4318 9.912C70.9438 9.42133 71.1998 8.728 71.1998 7.832C71.1998 6.97867 70.9438 6.30667 70.4318 5.816C69.9411 5.32533 69.1944 5.08 68.1918 5.08H64.7998V10.648ZM85.6748 0.535999V23H80.2028V0.535999H85.6748ZM106.76 7.768C106.76 9.06933 106.462 10.264 105.864 11.352C105.267 12.4187 104.35 13.2827 103.112 13.944C101.875 14.6053 100.339 14.936 98.5043 14.936H95.1123V23H89.6403V0.535999H98.5043C100.296 0.535999 101.811 0.845332 103.048 1.464C104.286 2.08267 105.214 2.936 105.832 4.024C106.451 5.112 106.76 6.36 106.76 7.768ZM98.0883 10.584C99.1336 10.584 99.9123 10.3387 100.424 9.848C100.936 9.35733 101.192 8.664 101.192 7.768C101.192 6.872 100.936 6.17867 100.424 5.688C99.9123 5.19733 99.1336 4.952 98.0883 4.952H95.1123V10.584H98.0883ZM115.081 0.535999V23H109.609V0.535999H115.081Z" fill="white"/>
<path d="M31.607 0.535999H37.207L33.623 9.112H29.943L31.607 0.535999Z" fill="#2CA25F"/>
</svg>
